<svg width="29" height="29" viewBox="0 0 29 29" fill="none" xmlns="http://www.w3.org/2000/svg">
<path d="M3.33952 19.3334V3.33341H0.672852V0.666748H4.67285C5.40924 0.666748 6.00619 1.26371 6.00619 2.00008V18.0001H22.5907L25.2574 7.33342H8.67285V4.66675H26.9651C27.7015 4.66675 28.2985 5.26371 28.2985 6.00008C28.2985 6.1091 28.2851 6.21771 28.2586 6.32347L24.9253 19.6567C24.777 20.2503 24.2437 20.6667 23.6318 20.6667H4.67285C3.93648 20.6667 3.33952 20.0698 3.33952 19.3334ZM6.00619 28.6667C4.53343 28.6667 3.33952 27.4729 3.33952 26.0001C3.33952 24.5273 4.53343 23.3334 6.00619 23.3334C7.47895 23.3334 8.67285 24.5273 8.67285 26.0001C8.67285 27.4729 7.47895 28.6667 6.00619 28.6667ZM22.0062 28.6667C20.5334 28.6667 19.3395 27.4729 19.3395 26.0001C19.3395 24.5273 20.5334 23.3334 22.0062 23.3334C23.479 23.3334 24.6729 24.5273 24.6729 26.0001C24.6729 27.4729 23.479 28.6667 22.0062 28.6667Z" fill="white"/>
</svg>
