<svg width="28" height="28" viewBox="0 0 28 28" fill="none" xmlns="http://www.w3.org/2000/svg">
<path d="M2.66667 18.6667V2.66667H0V0H4C4.73639 0 5.33333 0.59696 5.33333 1.33333V17.3333H21.9179L24.5846 6.66667H8V4H26.2923C27.0287 4 27.6256 4.59696 27.6256 5.33333C27.6256 5.44235 27.6123 5.55096 27.5858 5.65672L24.2524 18.99C24.1042 19.5836 23.5708 20 22.959 20H4C3.26363 20 2.66667 19.4031 2.66667 18.6667ZM5.33333 28C3.86057 28 2.66667 26.8061 2.66667 25.3333C2.66667 23.8605 3.86057 22.6667 5.33333 22.6667C6.80609 22.6667 8 23.8605 8 25.3333C8 26.8061 6.80609 28 5.33333 28ZM21.3334 28C19.8606 28 18.6667 26.8061 18.6667 25.3333C18.6667 23.8605 19.8606 22.6667 21.3334 22.6667C22.8062 22.6667 24 23.8605 24 25.3333C24 26.8061 22.8062 28 21.3334 28Z" fill="#272822"/>
</svg>
