<svg width="19" height="20" viewBox="0 0 19 20" fill="none" xmlns="http://www.w3.org/2000/svg">
<path d="M4.25488 0H15.2549C15.5696 0 15.866 0.14819 16.0549 0.4L18.7549 4V19C18.7549 19.5523 18.3072 20 17.7549 20H1.75488C1.2026 20 0.754883 19.5523 0.754883 19V4L3.45488 0.4C3.64374 0.14819 3.94013 0 4.25488 0ZM16.2549 4L14.7549 2H4.75488L3.25488 4H16.2549ZM6.75488 8H4.75488V10C4.75488 12.7614 6.99346 15 9.7549 15C12.5163 15 14.7549 12.7614 14.7549 10V8H12.7549V10C12.7549 11.6569 11.4117 13 9.7549 13C8.098 13 6.75488 11.6569 6.75488 10V8Z" fill="black"/>
</svg>
