<svg width="61" height="60" viewBox="0 0 61 60" fill="none" xmlns="http://www.w3.org/2000/svg">
<rect x="0.5" width="60" height="60" rx="30" fill="black"/>
<g clip-path="url(#clip0_679_710)">
<path d="M21.167 21.8334C21.167 21.524 21.2899 21.2272 21.5087 21.0085C21.7275 20.7897 22.0242 20.6667 22.3337 20.6667H27.0003C27.3097 20.6667 27.6065 20.7897 27.8253 21.0085C28.0441 21.2272 28.167 21.524 28.167 21.8334V26.5001C28.167 26.8095 28.0441 27.1062 27.8253 27.325C27.6065 27.5438 27.3097 27.6667 27.0003 27.6667H22.3337C22.0242 27.6667 21.7275 27.5438 21.5087 27.325C21.2899 27.1062 21.167 26.8095 21.167 26.5001V21.8334Z" stroke="white" stroke-width="2" stroke-linecap="round" stroke-linejoin="round"/>
<path d="M24.667 35.8333V35.8449" stroke="white" stroke-width="2" stroke-linecap="round" stroke-linejoin="round"/>
<path d="M32.833 21.8334C32.833 21.524 32.9559 21.2272 33.1747 21.0085C33.3935 20.7897 33.6903 20.6667 33.9997 20.6667H38.6663C38.9758 20.6667 39.2725 20.7897 39.4913 21.0085C39.7101 21.2272 39.833 21.524 39.833 21.8334V26.5001C39.833 26.8095 39.7101 27.1062 39.4913 27.325C39.2725 27.5438 38.9758 27.6667 38.6663 27.6667H33.9997C33.6903 27.6667 33.3935 27.5438 33.1747 27.325C32.9559 27.1062 32.833 26.8095 32.833 26.5001V21.8334Z" stroke="white" stroke-width="2" stroke-linecap="round" stroke-linejoin="round"/>
<path d="M24.667 24.1667V24.1784" stroke="white" stroke-width="2" stroke-linecap="round" stroke-linejoin="round"/>
<path d="M21.167 33.4999C21.167 33.1905 21.2899 32.8938 21.5087 32.675C21.7275 32.4562 22.0242 32.3333 22.3337 32.3333H27.0003C27.3097 32.3333 27.6065 32.4562 27.8253 32.675C28.0441 32.8938 28.167 33.1905 28.167 33.4999V38.1666C28.167 38.476 28.0441 38.7728 27.8253 38.9915C27.6065 39.2103 27.3097 39.3333 27.0003 39.3333H22.3337C22.0242 39.3333 21.7275 39.2103 21.5087 38.9915C21.2899 38.7728 21.167 38.476 21.167 38.1666V33.4999Z" stroke="white" stroke-width="2" stroke-linecap="round" stroke-linejoin="round"/>
<path d="M36.333 24.1667V24.1784" stroke="white" stroke-width="2" stroke-linecap="round" stroke-linejoin="round"/>
<path d="M32.833 32.3333H36.333" stroke="white" stroke-width="2" stroke-linecap="round" stroke-linejoin="round"/>
<path d="M39.833 32.3333V32.3449" stroke="white" stroke-width="2" stroke-linecap="round" stroke-linejoin="round"/>
<path d="M32.833 32.3333V35.8333" stroke="white" stroke-width="2" stroke-linecap="round" stroke-linejoin="round"/>
<path d="M32.833 39.3333H36.333" stroke="white" stroke-width="2" stroke-linecap="round" stroke-linejoin="round"/>
<path d="M36.333 35.8333H39.833" stroke="white" stroke-width="2" stroke-linecap="round" stroke-linejoin="round"/>
<path d="M39.833 35.8333V39.3333" stroke="white" stroke-width="2" stroke-linecap="round" stroke-linejoin="round"/>
</g>
<defs>
<clipPath id="clip0_679_710">
<rect width="28" height="28" fill="white" transform="translate(16.5 16)"/>
</clipPath>
</defs>
</svg>
