<svg width="21" height="22" viewBox="0 0 21 22" fill="none" xmlns="http://www.w3.org/2000/svg">
<path d="M3.25436 5.41662L0.0117188 2.17398L1.42593 0.759766L4.66857 4.00241H19.9103C20.4626 4.00241 20.9103 4.45012 20.9103 5.00241C20.9103 5.09973 20.8961 5.19653 20.8682 5.28975L18.4682 13.2898C18.3413 13.7127 17.9519 14.0024 17.5103 14.0024H5.25436V16.0024H16.2544V18.0024H4.25436C3.70207 18.0024 3.25436 17.5547 3.25436 17.0024V5.41662ZM4.75436 22.0024C3.92593 22.0024 3.25436 21.3308 3.25436 20.5024C3.25436 19.674 3.92593 19.0024 4.75436 19.0024C5.58279 19.0024 6.25436 19.674 6.25436 20.5024C6.25436 21.3308 5.58279 22.0024 4.75436 22.0024ZM16.7544 22.0024C15.9259 22.0024 15.2544 21.3308 15.2544 20.5024C15.2544 19.674 15.9259 19.0024 16.7544 19.0024C17.5828 19.0024 18.2544 19.674 18.2544 20.5024C18.2544 21.3308 17.5828 22.0024 16.7544 22.0024Z" fill="black"/>
</svg>
