<svg width="20" height="20" viewBox="0 0 20 20" fill="none" xmlns="http://www.w3.org/2000/svg">
<path d="M16.9945 2.64243C16.3813 2.44913 15.6921 2.35528 14.896 2.30615C13.986 2.25 12.8801 2.25 11.5233 2.25H8.46073C6.85735 2.24999 5.60039 2.24999 4.5962 2.34547C3.57265 2.44279 2.73455 2.64457 1.99573 3.09732C1.22203 3.57144 0.571533 4.22194 0.0974129 4.99563C0.0806159 5.02304 0.0641644 5.05059 0.0480508 5.07828C0.125345 3.63513 0.327231 2.67932 0.854544 1.92267C1.13049 1.5267 1.46451 1.17848 1.84432 0.89079C3.02036 0 4.69796 0 8.05317 0H13.4219C15.1091 0 15.9527 0 16.4769 0.546449C16.8794 0.966137 16.9728 1.58228 16.9945 2.64243Z" fill="black"/>
<path d="M0.736799 5.38751C0 6.58985 0 8.22657 0 11.5C0 14.7734 0 16.4101 0.736799 17.6125C1.14908 18.2853 1.71473 18.8509 2.38751 19.2632C3.58985 20 5.22657 20 8.5 20H11.5C14.7734 20 16.4101 20 17.6125 19.2632C18.2853 18.8509 18.8509 18.2853 19.2632 17.6125C19.7471 16.8229 19.9132 15.8459 19.9702 14.3409H13.6365C11.716 14.3409 10.1592 12.7841 10.1592 10.8637C10.1592 8.94321 11.716 7.38638 13.6365 7.38638H19.8777C19.7775 6.55873 19.5951 5.92906 19.2632 5.38751C18.8509 4.71473 18.2853 4.14908 17.6125 3.7368C17.421 3.61943 17.2184 3.52076 17 3.43781C15.8472 3 14.252 3 11.5 3H8.5C5.22657 3 3.58985 3 2.38751 3.7368C1.71473 4.14908 1.14908 4.71473 0.736799 5.38751Z" fill="black"/>
<path fill-rule="evenodd" clip-rule="evenodd" d="M19.9779 8.88638H13.6365C12.5444 8.88638 11.6592 9.77164 11.6592 10.8637C11.6592 11.9557 12.5444 12.8409 13.6365 12.8409H19.9977C20 12.4268 20 11.9811 20 11.5C20 10.4828 20 9.62359 19.9779 8.88638ZM13.6365 10.1137C13.2222 10.1137 12.8865 10.4494 12.8865 10.8637C12.8865 11.2779 13.2222 11.6137 13.6365 11.6137H16.3637C16.7779 11.6137 17.1137 11.2779 17.1137 10.8637C17.1137 10.4494 16.7779 10.1137 16.3637 10.1137H13.6365Z" fill="black"/>
</svg>
