<svg width="41" height="30" viewBox="0 0 41 30" fill="none" xmlns="http://www.w3.org/2000/svg">
<path d="M40 3C40 1.896 39.104 1 38 1H12.744C11.87 1 11.038 1.382 10.468 2.046C8.312 4.558 2.846 10.924 0.482 13.676C0.162 14.05 0 14.514 0 14.978C0 15.44 0.16 15.904 0.48 16.28C2.842 19.04 8.31 25.43 10.468 27.95C11.038 28.616 11.87 29 12.748 29H38C39.104 29 40 28.104 40 27C40 21.846 40 8.154 40 3ZM12.744 4H37V26H12.748L3.318 14.98L12.744 4ZM24.018 12.854L27.438 9.434C27.73 9.142 28.116 8.996 28.5 8.996C29.308 8.996 30 9.644 30 10.494C30 10.88 29.854 11.262 29.562 11.556L26.14 14.978L29.596 18.434C29.89 18.728 30.036 19.112 30.036 19.494C30.036 20.348 29.338 20.996 28.536 20.996C28.152 20.996 27.768 20.85 27.474 20.558L24.018 17.1L20.562 20.558C20.27 20.85 19.884 20.996 19.5 20.996C18.698 20.996 18 20.348 18 19.494C18 19.112 18.146 18.728 18.44 18.434L21.896 14.978L18.32 11.404C18.028 11.108 17.882 10.726 17.882 10.34C17.882 9.49 18.574 8.842 19.384 8.842C19.768 8.842 20.152 8.988 20.444 9.28L24.018 12.854Z" fill="black"/>
</svg>
