<svg width="36" height="28" viewBox="0 0 36 28" fill="none" xmlns="http://www.w3.org/2000/svg">
<path d="M5.58687 15.6364H24.5452C25.4489 15.6364 26.1816 14.9037 26.1816 14C26.1816 13.0963 25.4489 12.3636 24.5452 12.3636H5.58687L7.70258 10.248C8.34164 9.60908 8.34164 8.57294 7.70258 7.93388C7.06375 7.29483 6.0276 7.29483 5.38844 7.93388L0.479673 12.8426C0.441709 12.8805 0.405927 12.9201 0.371891 12.9616C0.3636 12.9717 0.356509 12.9826 0.348436 12.993C0.323455 13.0247 0.298909 13.0566 0.276436 13.0902C0.269891 13.1 0.264545 13.1104 0.258109 13.1203C0.235636 13.1554 0.2136 13.1909 0.193745 13.2278C0.189927 13.2352 0.186764 13.2429 0.182945 13.2502C0.162327 13.2902 0.142473 13.3308 0.125127 13.3727C0.122945 13.3778 0.121418 13.3833 0.119345 13.3885C0.101564 13.4326 0.0850909 13.4772 0.0711273 13.5232C0.0692727 13.5289 0.0682909 13.5349 0.0666545 13.5408C0.0534545 13.5859 0.0413455 13.6314 0.0320727 13.678C0.0293455 13.6918 0.0281455 13.7061 0.0256364 13.7201C0.0188727 13.7587 0.0121091 13.7973 0.00829091 13.8367C0.00272727 13.8907 0 13.9452 0 14C0 14.0548 0.00272727 14.1093 0.00829091 14.1634C0.0121091 14.2033 0.0190909 14.2423 0.0257455 14.2812C0.0281455 14.2948 0.0293455 14.3086 0.0320727 14.322C0.0414545 14.369 0.0534545 14.415 0.0667636 14.4605C0.0684 14.4658 0.0693818 14.4715 0.0710182 14.4768C0.0850909 14.523 0.101564 14.568 0.119564 14.6125C0.121527 14.6173 0.122945 14.6225 0.125018 14.6273C0.142473 14.6695 0.162436 14.7103 0.183273 14.7505C0.186873 14.7576 0.189927 14.765 0.193636 14.7721C0.213709 14.8093 0.235855 14.8451 0.258655 14.8806C0.264764 14.8902 0.27 14.9003 0.276327 14.9097C0.298909 14.9434 0.323673 14.9755 0.348545 15.0073C0.356509 15.0176 0.3636 15.0284 0.371782 15.0384C0.405927 15.0798 0.441709 15.1195 0.479564 15.1573L5.38833 20.0661C5.70785 20.3857 6.12665 20.5454 6.54545 20.5454C6.96425 20.5454 7.38305 20.3857 7.70247 20.0661C8.34153 19.427 8.34153 18.391 7.70247 17.752L5.58687 15.6364Z" fill="#D93E3C"/>
<path d="M22.6144 0.61438C18.1478 0.61438 13.9921 2.83024 11.4977 6.54162C10.9937 7.29162 11.1931 8.30834 11.9431 8.81245C12.6933 9.31645 13.7099 9.11725 14.2141 8.36703C16.0993 5.56176 19.2396 3.887 22.6144 3.887C28.1906 3.88711 32.7273 8.42365 32.7273 13.9999C32.7273 19.5762 28.1906 24.1128 22.6144 24.1128C19.2495 24.1128 16.1144 22.4455 14.2277 19.653C13.7217 18.9041 12.7047 18.7073 11.9557 19.2132C11.2069 19.7191 11.0099 20.7363 11.5158 21.4851C14.0119 25.1798 18.1609 27.3855 22.6144 27.3855C29.9952 27.3855 36 21.3808 36 13.9999C36 6.61907 29.9952 0.61438 22.6144 0.61438Z" fill="#D93E3C"/>
</svg>
