<svg width="38" height="38" viewBox="0 0 38 38" fill="none" xmlns="http://www.w3.org/2000/svg">
<circle cx="19" cy="19" r="19" fill="#9A50AD"/>
<g clip-path="url(#clip0_433_2845)">
<path d="M11 26C11 26.5304 11.2107 27.0391 11.5858 27.4142C11.9609 27.7893 12.4696 28 13 28C13.5304 28 14.0391 27.7893 14.4142 27.4142C14.7893 27.0391 15 26.5304 15 26C15 25.4696 14.7893 24.9609 14.4142 24.5858C14.0391 24.2107 13.5304 24 13 24C12.4696 24 11.9609 24.2107 11.5858 24.5858C11.2107 24.9609 11 25.4696 11 26Z" stroke="white" stroke-width="1.5" stroke-linecap="round" stroke-linejoin="round"/>
<path d="M22 26C22 26.5304 22.2107 27.0391 22.5858 27.4142C22.9609 27.7893 23.4696 28 24 28C24.5304 28 25.0391 27.7893 25.4142 27.4142C25.7893 27.0391 26 26.5304 26 26C26 25.4696 25.7893 24.9609 25.4142 24.5858C25.0391 24.2107 24.5304 24 24 24C23.4696 24 22.9609 24.2107 22.5858 24.5858C22.2107 24.9609 22 25.4696 22 26Z" stroke="white" stroke-width="1.5" stroke-linecap="round" stroke-linejoin="round"/>
<path d="M24 24H13V10H11" stroke="white" stroke-width="1.5" stroke-linecap="round" stroke-linejoin="round"/>
<path d="M13 12L27 13L26 20H13" stroke="white" stroke-width="1.5" stroke-linecap="round" stroke-linejoin="round"/>
</g>
<defs>
<clipPath id="clip0_433_2845">
<rect width="24" height="24" fill="white" transform="translate(7 7)"/>
</clipPath>
</defs>
</svg>
