<svg width="25" height="30" viewBox="0 0 25 30" fill="none" xmlns="http://www.w3.org/2000/svg">
<path d="M8.3375 3.36426L8 4.0625H3.5C2.67031 4.0625 2 4.76074 2 5.625C2 6.48926 2.67031 7.1875 3.5 7.1875H21.5C22.3297 7.1875 23 6.48926 23 5.625C23 4.76074 22.3297 4.0625 21.5 4.0625H17L16.6625 3.36426C16.4094 2.83203 15.8891 2.5 15.3219 2.5H9.67813C9.11094 2.5 8.59062 2.83203 8.3375 3.36426ZM21.5 8.75H3.5L4.49375 25.3027C4.56875 26.5381 5.55312 27.5 6.73906 27.5H18.2609C19.4469 27.5 20.4312 26.5381 20.5062 25.3027L21.5 8.75Z" fill="white"/>
</svg>
