<svg width="21" height="25" viewBox="0 0 21 25" fill="none" xmlns="http://www.w3.org/2000/svg">
<path d="M6.3375 0.864258L6 1.5625H1.5C0.670312 1.5625 0 2.26074 0 3.125C0 3.98926 0.670312 4.6875 1.5 4.6875H19.5C20.3297 4.6875 21 3.98926 21 3.125C21 2.26074 20.3297 1.5625 19.5 1.5625H15L14.6625 0.864258C14.4094 0.332031 13.8891 0 13.3219 0H7.67813C7.11094 0 6.59062 0.332031 6.3375 0.864258ZM19.5 6.25H1.5L2.49375 22.8027C2.56875 24.0381 3.55312 25 4.73906 25H16.2609C17.4469 25 18.4312 24.0381 18.5062 22.8027L19.5 6.25Z" fill="black"/>
</svg>
